<svg xmlns="http://www.w3.org/2000/svg" width="128" height="64" shape-rendering="crispEdges"><g transform="translate(0 0)"><rect x="0" y="0" width="16" height="16" fill="#66754a"/><rect x="3" y="5" width="1" height="2" fill="#7f8c5a"/><rect x="11" y="11" width="1" height="2" fill="#7f8c5a"/><rect x="8" y="2" width="2" height="1" fill="#5c6a44"/></g><g transform="translate(16 0)"><rect x="0" y="0" width="16" height="16" fill="#62714a"/><rect x="3" y="5" width="1" height="2" fill="#7f8c5a"/><rect x="11" y="11" width="1" height="2" fill="#7f8c5a"/><rect x="8" y="2" width="2" height="1" fill="#5c6a44"/><rect x="5" y="8" width="2" height="1" fill="#d8d2bc"/><rect x="12" y="3" width="1" height="1" fill="#d8d2bc"/></g><g transform="translate(32 0)"><rect x="0" y="0" width="16" height="16" fill="#c4bca2"/><rect x="2" y="4" width="3" height="1" fill="#a89e84"/><rect x="9" y="10" width="4" height="1" fill="#a89e84"/><rect x="6" y="13" width="1" height="1" fill="#ddd6c0"/></g><g transform="translate(48 0)"><rect x="0" y="0" width="16" height="16" fill="#66754a"/><rect x="1" y="3" width="14" height="12" fill="#3e5232"/><rect x="3" y="4" width="3" height="2" fill="#c8a840"/><rect x="9" y="7" width="2" height="2" fill="#c8a840"/><rect x="5" y="10" width="2" height="2" fill="#c8a840"/></g><g transform="translate(64 0)"><rect x="0" y="0" width="16" height="16" fill="#66754a"/><rect x="0" y="4" width="16" height="10" fill="#7a7a6e"/><rect x="1" y="5" width="5" height="4" fill="#8e8e82"/><rect x="7" y="9" width="6" height="4" fill="#8e8e82"/><rect x="0" y="13" width="16" height="1" fill="#55554c"/></g><g transform="translate(80 0)"><rect x="0" y="0" width="16" height="16" fill="#6e6c62"/><rect x="0" y="5" width="16" height="1" fill="#4e4c44"/><rect x="0" y="11" width="16" height="1" fill="#4e4c44"/><rect x="5" y="0" width="1" height="5" fill="#4e4c44"/><rect x="11" y="6" width="1" height="5" fill="#4e4c44"/><rect x="3" y="12" width="1" height="4" fill="#4e4c44"/></g><g transform="translate(96 0)"><rect x="0" y="0" width="16" height="16" fill="#5a584e"/><rect x="2" y="3" width="4" height="3" fill="#6e6c62"/><rect x="10" y="9" width="3" height="3" fill="#6e6c62"/><rect x="7" y="13" width="2" height="1" fill="#44423a"/></g><g transform="translate(112 0)"><rect x="0" y="0" width="16" height="16" fill="#5c6c42"/><rect x="0" y="0" width="16" height="4" fill="#6a7a4c"/><rect x="2" y="6" width="12" height="1" fill="#4e5c38"/><rect x="4" y="11" width="8" height="1" fill="#4e5c38"/></g><g transform="translate(0 16)"><rect x="0" y="0" width="16" height="16" fill="#5c6c42"/><rect x="2" y="2" width="12" height="14" fill="#3a3832"/><rect x="3" y="3" width="10" height="13" fill="#55534a"/><rect x="7" y="3" width="2" height="13" fill="#3a3832"/></g><g transform="translate(16 16)"><rect x="0" y="0" width="16" height="16" fill="#3a5a5a"/><rect x="2" y="4" width="5" height="1" fill="#5a7a76"/><rect x="9" y="10" width="5" height="1" fill="#5a7a76"/></g><g transform="translate(32 16)"><rect x="0" y="0" width="16" height="16" fill="#66754a"/><rect x="0" y="6" width="16" height="4" fill="#dcd6c2"/></g><g transform="translate(48 16)"><rect x="0" y="0" width="16" height="16" fill="#9a8a6a"/><rect x="0" y="0" width="1" height="16" fill="#6a5a44"/><rect x="15" y="0" width="1" height="16" fill="#6a5a44"/><rect x="5" y="6" width="6" height="10" fill="#4a3a2a"/></g><g transform="translate(64 16)"><rect x="0" y="0" width="16" height="16" fill="#8a7a4a"/><rect x="0" y="2" width="16" height="1" fill="#6a5a34"/><rect x="0" y="6" width="16" height="1" fill="#6a5a34"/><rect x="0" y="10" width="16" height="1" fill="#6a5a34"/><rect x="0" y="14" width="16" height="1" fill="#6a5a34"/></g><g transform="translate(80 16)"><rect x="0" y="0" width="16" height="16" fill="#66754a"/><rect x="1" y="1" width="14" height="11" fill="#3e4e2e"/><rect x="3" y="2" width="9" height="6" fill="#56683c"/><rect x="7" y="11" width="3" height="5" fill="#3e3226"/></g><g transform="translate(96 16)"><rect x="0" y="0" width="16" height="16" fill="#66754a"/><rect x="1" y="1" width="14" height="11" fill="#2a3822"/><rect x="3" y="2" width="9" height="6" fill="#3a4a30"/><rect x="7" y="11" width="3" height="5" fill="#3e3226"/></g><g transform="translate(112 16)"><rect x="0" y="0" width="16" height="16" fill="#66754a"/><rect x="7" y="6" width="2" height="10" fill="#5d4630"/><rect x="2" y="2" width="12" height="5" fill="#8c7049"/><rect x="3" y="3" width="10" height="1" fill="#b49863"/></g><g transform="translate(0 32)"><rect x="0" y="0" width="16" height="16" fill="#66754a"/><rect x="0" y="5" width="16" height="2" fill="#7a6040"/><rect x="0" y="10" width="16" height="2" fill="#7a6040"/><rect x="1" y="3" width="2" height="11" fill="#5d4630"/><rect x="7" y="3" width="2" height="11" fill="#5d4630"/><rect x="13" y="3" width="2" height="11" fill="#5d4630"/></g><g transform="translate(16 32)"><rect x="0" y="0" width="16" height="16" fill="#3a3a34"/><rect x="0" y="0" width="7" height="7" fill="#44443c"/><rect x="8" y="8" width="8" height="8" fill="#44443c"/><rect x="0" y="15" width="16" height="1" fill="#2a2a26"/></g><g transform="translate(32 32)"><rect x="0" y="0" width="16" height="16" fill="#2e2c28"/><rect x="0" y="5" width="16" height="1" fill="#1e1c1a"/><rect x="0" y="11" width="16" height="1" fill="#1e1c1a"/><rect x="5" y="0" width="1" height="5" fill="#1e1c1a"/><rect x="11" y="6" width="1" height="5" fill="#1e1c1a"/><rect x="3" y="12" width="1" height="4" fill="#1e1c1a"/></g><g transform="translate(48 32)"><rect x="0" y="0" width="16" height="16" fill="#07090a"/></g><g transform="translate(64 32)"><rect x="0" y="0" width="16" height="16" fill="#3a3a34"/><rect x="1" y="2" width="14" height="12" fill="#5a5850"/><rect x="2" y="3" width="12" height="10" fill="#6a6860"/><rect x="4" y="6" width="8" height="1" fill="#4a4842"/></g><g transform="translate(80 32)"><rect x="0" y="0" width="16" height="16" fill="#3a3a34"/><rect x="1" y="3" width="14" height="11" fill="#7a6a3a"/><rect x="3" y="5" width="10" height="7" fill="#8a7a46"/><rect x="5" y="7" width="6" height="3" fill="#6a5a30"/></g><g transform="translate(96 32)"><rect x="0" y="0" width="16" height="16" fill="#3a3a34"/><rect x="3" y="5" width="7" height="2" fill="#c8c0a8"/><rect x="9" y="10" width="5" height="2" fill="#c8c0a8"/><rect x="5" y="11" width="2" height="2" fill="#a8a088"/></g><g transform="translate(112 32)"><rect x="0" y="0" width="16" height="16" fill="#66754a"/><rect x="3" y="8" width="10" height="7" fill="#7a7a6e"/><rect x="5" y="4" width="6" height="5" fill="#8e8e82"/><rect x="7" y="1" width="3" height="4" fill="#7a7a6e"/></g><g transform="translate(0 48)"><rect x="0" y="0" width="16" height="16" fill="#66754a"/><rect x="6" y="0" width="4" height="16" fill="#dcd6c2"/></g><g transform="translate(16 48)"><rect x="0" y="0" width="16" height="16" fill="#66754a"/><rect x="0" y="6" width="10" height="4" fill="#dcd6c2"/><rect x="6" y="0" width="4" height="10" fill="#dcd6c2"/></g></svg>
