<svg xmlns="http://www.w3.org/2000/svg" width="32" height="32" viewBox="0 0 32 32" shape-rendering="crispEdges">
  <path fill="#3a3c40" d="M8 11h16v19H8z"/>
  <path fill="#5a5c62" d="M9 12h14v16H9z"/>
  <path fill="#2a2c30" d="M15 12h2v16h-2z"/>
  <path fill="#d8c070" d="M14 12h4v2h-4z"/>
  <path fill="#d8d2c4" d="M11 3h10v9H11z"/>
  <path fill="#e8e2d4" d="M12 4h8v4h-8z"/>
  <path fill="#1a1a1e" d="M13 7h2v1h-2zM17 7h2v1h-2z"/>
  <path fill="#a89878" d="M7 2h4v3H7zM6 4h3v4H6zM21 2h4v3h-4zM23 4h3v4h-3z"/>
  <path fill="#c8c0a8" d="M24 10h2v18h-2z"/>
  <path fill="#d8c070" d="M23 8h4v3h-4z"/>
</svg>
