<svg xmlns="http://www.w3.org/2000/svg" width="32" height="32" viewBox="0 0 32 32" shape-rendering="crispEdges">
  <path fill="#1e1a16" d="M11 27h4v5h-4zM17 27h4v5h-4z"/>
  <path fill="#33302a" d="M11 21h4v6h-4zM17 21h4v6h-4z"/>
  <path fill="#4a4e58" d="M9 12h14v10H9z"/>
  <path fill="#2a2c32" d="M9 19h14v2H9z"/>
  <path fill="#8a7a5a" d="M11 3h10v9H11z"/>
  <path fill="#a89878" d="M16 6h6v5h-6z"/>
  <path fill="#5a4a3a" d="M11 1h3v4h-3zM18 1h3v4h-3z"/>
  <path fill="#1a1612" d="M14 6h2v1h-2zM21 7h1v2h-1z"/>
  <path fill="#5a4630" d="M3 13h12v2H3z"/>
  <path fill="#7a7a74" d="M2 11h2v6H2z"/>
  <path fill="#5a524a" d="M23 12h3v8h-3z"/>
</svg>
