<svg xmlns="http://www.w3.org/2000/svg" width="32" height="32" shape-rendering="crispEdges"><path fill="#263b37" d="M9 13h16v15H9zM4 18h5v10H4zM25 17h4v11h-4z"/><path fill="#6c8275" d="M10 14h13v12H10zM6 18h5v8H6zM22 18h5v8h-5z"/><path fill="#b2b197" d="M12 11h10v7H12zM10 14h14v3H10z"/><path fill="#c0ac84" d="M14 3h9v10h-9z"/><path fill="#a38859" d="M21 7h8v4h-8zM26 10h3v3h-3zM12 27h3v4h-3zM21 27h3v4h-3z"/><path fill="#263b37" d="M19 5h2v2h-2z"/><path fill="#8d987c" d="M13 18h2v7h-2zM18 19h2v7h-2z"/></svg>
